<?xml version="1.0" encoding="UTF-8" standalone="no"?>
<svg width="191px" height="113px" viewBox="0 0 191 113" version="1.1" xmlns="http://www.w3.org/2000/svg" xmlns:xlink="http://www.w3.org/1999/xlink">
    <!-- Generator: Sketch 3.8.1 (29687) - http://www.bohemiancoding.com/sketch -->
    <title>content-plan</title>
    <desc>Created with Sketch.</desc>
    <defs></defs>
    <g id="Page-1" stroke="none" stroke-width="1" fill="none" fill-rule="evenodd">
        <g id="content-plan">
            <g id="story" transform="translate(15.000000, 96.000000)" stroke="#979797" stroke-linecap="square">
                <path d="M1.29452602,1.26489062 L42.7193591,1.26489062" id="Line" stroke-width="2"></path>
                <path d="M0.564280566,8.22178904 L43.5089626,8.22178904" id="Line"></path>
                <path d="M0.564280566,15.8111328 L43.5089626,15.8111328" id="Line"></path>
            </g>
            <g id="story" transform="translate(71.000000, 96.000000)" stroke="#979797" stroke-linecap="square">
                <path d="M1.29452602,1.26489062 L42.7193591,1.26489062" id="Line" stroke-width="2"></path>
                <path d="M0.564280566,8.22178904 L43.5089626,8.22178904" id="Line"></path>
                <path d="M0.564280566,15.8111328 L43.5089626,15.8111328" id="Line"></path>
            </g>
            <g id="story" transform="translate(131.000000, 96.000000)" stroke="#979797" stroke-linecap="square">
                <path d="M1.29452602,1.26859998 L42.7193591,1.26859998" id="Line" stroke-width="2"></path>
                <path d="M0.564280566,8.24589986 L43.5089626,8.24589986" id="Line"></path>
                <path d="M0.564280566,15.8574997 L43.5089626,15.8574997" id="Line"></path>
            </g>
            <g id="Group-4" transform="translate(52.000000, 0.000000)">
                <g id="Group-3" transform="translate(27.530790, 0.826923)" fill="#12A9A6">
                    <ellipse id="Oval-1" cx="13.9833738" cy="7.65669516" rx="7.71246308" ry="7.65669516"></ellipse>
                    <path d="M0.267641888,26.8361101 C0.267641888,26.8361101 0.0864299171,12.0234041 13.6133671,12.0234041 C27.1403043,12.0234041 26.7350478,26.8361101 26.7350478,26.8361101 L0.267641888,26.8361101 Z" id="Path-6"></path>
                </g>
                <g id="Group-3" transform="translate(0.592371, 14.608974)" stroke="#FFFFFF" fill="#D8D8D8">
                    <path d="M19.3533678,13.1524893 C20.7980613,11.7609422 21.6958368,9.8129039 21.6958368,7.65669516 C21.6958368,3.42801919 18.2428495,0 13.9833738,0 C9.72389802,0 6.27091068,3.42801919 6.27091068,7.65669516 C6.27091068,9.69972202 7.07690935,11.555859 8.3904504,12.928808 C0.136866386,16.1462034 0.267641888,26.8361101 0.267641888,26.8361101 L26.7350478,26.8361101 C26.7350478,26.8361101 27.0147466,16.6127181 19.3533678,13.1524893 Z" id="Combined-Shape"></path>
                </g>
                <g id="Group-3" transform="translate(54.469210, 14.608974)" stroke="#FFFFFF" fill="#D8D8D8">
                    <path d="M19.3533678,13.1524893 C20.7980613,11.7609422 21.6958368,9.8129039 21.6958368,7.65669516 C21.6958368,3.42801919 18.2428495,0 13.9833738,0 C9.72389802,0 6.27091068,3.42801919 6.27091068,7.65669516 C6.27091068,9.69972202 7.07690935,11.555859 8.3904504,12.928808 C0.136866386,16.1462034 0.267641888,26.8361101 0.267641888,26.8361101 L26.7350478,26.8361101 C26.7350478,26.8361101 27.0147466,16.6127181 19.3533678,13.1524893 Z" id="Combined-Shape"></path>
                </g>
            </g>
            <path d="M0.826086957,75.5 L189.239119,75.5" id="Line" stroke="#979797" stroke-linecap="square"></path>
            <path d="M37.5,83 C41.6421356,83 45,79.6421356 45,75.5 C45,71.3578644 41.6421356,68 37.5,68 C33.3578644,68 30,71.3578644 30,75.5 C30,79.6421356 33.3578644,83 37.5,83 Z" id="Oval-2" stroke="#FFFFFF" fill="#12A9A6"></path>
            <path d="M93.5,83 C97.6421356,83 101,79.6421356 101,75.5 C101,71.3578644 97.6421356,68 93.5,68 C89.3578644,68 86,71.3578644 86,75.5 C86,79.6421356 89.3578644,83 93.5,83 Z" id="Oval-2" stroke="#FFFFFF" fill="#12A9A6"></path>
            <path d="M151.5,83 C155.642136,83 159,79.6421356 159,75.5 C159,71.3578644 155.642136,68 151.5,68 C147.357864,68 144,71.3578644 144,75.5 C144,79.6421356 147.357864,83 151.5,83 Z" id="Oval-2" stroke="#FFFFFF" fill="#12A9A6"></path>
            <polyline id="Path-19" stroke="#979797" points="185 70 190 75.0769231 185 81"></polyline>
        </g>
    </g>
</svg>