<?xml version="1.0" encoding="UTF-8" standalone="no"?>
<svg width="191px" height="112px" viewBox="0 0 191 112" version="1.1" xmlns="http://www.w3.org/2000/svg" xmlns:xlink="http://www.w3.org/1999/xlink">
    <!-- Generator: Sketch 3.8.2 (29753) - http://www.bohemiancoding.com/sketch -->
    <title>content-plan</title>
    <desc>Created with Sketch.</desc>
    <defs></defs>
    <g id="Page-1" stroke="none" stroke-width="1" fill="none" fill-rule="evenodd">
        <g id="content-plan">
            <g id="story" transform="translate(15.000000, 95.000000)" stroke="#979797" stroke-linecap="square">
                <path d="M1.29452602,1.26489062 L42.7193591,1.26489062" id="Line" stroke-width="2"></path>
                <path d="M0.564280566,8.22178904 L43.5089626,8.22178904" id="Line"></path>
                <path d="M0.564280566,15.8111328 L43.5089626,15.8111328" id="Line"></path>
            </g>
            <g id="story" transform="translate(71.000000, 95.000000)" stroke="#979797" stroke-linecap="square">
                <path d="M1.29452602,1.26489062 L42.7193591,1.26489062" id="Line" stroke-width="2"></path>
                <path d="M0.564280566,8.22178904 L43.5089626,8.22178904" id="Line"></path>
                <path d="M0.564280566,15.8111328 L43.5089626,15.8111328" id="Line"></path>
            </g>
            <g id="story" transform="translate(131.000000, 95.000000)" stroke="#979797" stroke-linecap="square">
                <path d="M1.29452602,1.26859998 L42.7193591,1.26859998" id="Line" stroke-width="2"></path>
                <path d="M0.564280566,8.24589986 L43.5089626,8.24589986" id="Line"></path>
                <path d="M0.564280566,15.8574997 L43.5089626,15.8574997" id="Line"></path>
            </g>
            <g id="Group-4" transform="translate(53.000000, 0.000000)">
                <g id="Group-3" transform="translate(27.000000, 0.000000)" fill="#12A9A6">
                    <circle id="Oval-1" cx="13.5" cy="7.5" r="7.5"></circle>
                    <path d="M0.000121197818,27 C0.000121197818,27 -0.177881088,12 13.1094626,12 C26.3968064,12 25.9987278,27 25.9987278,27 L0.000121197818,27 Z" id="Path-6"></path>
                </g>
                <g id="Group-3" transform="translate(0.000000, 14.000000)" stroke="#FFFFFF" fill="#D8D8D8">
                    <path d="M18.5436807,13.0508632 C20.0526773,11.6789338 21,9.70009644 21,7.5 C21,3.35786438 17.6421356,0 13.5,0 C9.35786438,0 6,3.35786438 6,7.5 C6,9.58166597 6.84807958,11.4652523 8.21757565,12.824096 C-0.130844903,15.9636726 0.000121197818,27 0.000121197818,27 L25.9987278,27 C25.9987278,27 26.2784166,16.4610465 18.5436807,13.0508632 Z" id="Combined-Shape"></path>
                </g>
                <g id="Group-3" transform="translate(53.000000, 14.000000)" stroke="#FFFFFF" fill="#D8D8D8">
                    <path d="M18.5436807,13.0508632 C20.0526773,11.6789338 21,9.70009644 21,7.5 C21,3.35786438 17.6421356,0 13.5,0 C9.35786438,0 6,3.35786438 6,7.5 C6,9.58166597 6.84807958,11.4652523 8.21757565,12.824096 C-0.130844903,15.9636726 0.000121197818,27 0.000121197818,27 L25.9987278,27 C25.9987278,27 26.2784166,16.4610465 18.5436807,13.0508632 Z" id="Combined-Shape"></path>
                </g>
            </g>
            <path d="M0.826086957,74.5 L189.239119,74.5" id="Line" stroke="#979797" stroke-linecap="square"></path>
            <path d="M37.5,82 C41.6421356,82 45,78.6421356 45,74.5 C45,70.3578644 41.6421356,67 37.5,67 C33.3578644,67 30,70.3578644 30,74.5 C30,78.6421356 33.3578644,82 37.5,82 Z" id="Oval-2" stroke="#FFFFFF" fill="#12A9A6"></path>
            <path d="M93.5,82 C97.6421356,82 101,78.6421356 101,74.5 C101,70.3578644 97.6421356,67 93.5,67 C89.3578644,67 86,70.3578644 86,74.5 C86,78.6421356 89.3578644,82 93.5,82 Z" id="Oval-2" stroke="#FFFFFF" fill="#12A9A6"></path>
            <path d="M151.5,82 C155.642136,82 159,78.6421356 159,74.5 C159,70.3578644 155.642136,67 151.5,67 C147.357864,67 144,70.3578644 144,74.5 C144,78.6421356 147.357864,82 151.5,82 Z" id="Oval-2" stroke="#FFFFFF" fill="#12A9A6"></path>
            <polyline id="Path-19" stroke="#979797" points="185 69 190 74.0769231 185 80"></polyline>
        </g>
    </g>
</svg>