<?xml version="1.0" encoding="UTF-8" standalone="no"?>
<svg width="276px" height="160px" viewBox="0 0 276 160" version="1.1" xmlns="http://www.w3.org/2000/svg" xmlns:xlink="http://www.w3.org/1999/xlink">
    <!-- Generator: Sketch 3.8.2 (29753) - http://www.bohemiancoding.com/sketch -->
    <title>designs</title>
    <desc>Created with Sketch.</desc>
    <defs>
        <rect id="path-1" x="0" y="0" width="206.315789" height="127.364865"></rect>
        <mask id="mask-2" maskContentUnits="userSpaceOnUse" maskUnits="objectBoundingBox" x="0" y="0" width="206.315789" height="127.364865" fill="white">
            <use xlink:href="#path-1"></use>
        </mask>
        <rect id="path-3" x="0" y="0" width="41" height="127"></rect>
        <mask id="mask-4" maskContentUnits="userSpaceOnUse" maskUnits="objectBoundingBox" x="0" y="0" width="41" height="127" fill="white">
            <use xlink:href="#path-3"></use>
        </mask>
        <rect id="path-5" x="7" y="33" width="27" height="33"></rect>
        <mask id="mask-6" maskContentUnits="userSpaceOnUse" maskUnits="objectBoundingBox" x="0" y="0" width="27" height="33" fill="white">
            <use xlink:href="#path-5"></use>
        </mask>
        <rect id="path-7" x="0" y="0" width="89" height="127"></rect>
        <mask id="mask-8" maskContentUnits="userSpaceOnUse" maskUnits="objectBoundingBox" x="0" y="0" width="89" height="127" fill="white">
            <use xlink:href="#path-7"></use>
        </mask>
        <rect id="path-9" x="15" y="33" width="58" height="33"></rect>
        <mask id="mask-10" maskContentUnits="userSpaceOnUse" maskUnits="objectBoundingBox" x="0" y="0" width="58" height="33" fill="white">
            <use xlink:href="#path-9"></use>
        </mask>
    </defs>
    <g id="Page-1" stroke="none" stroke-width="1" fill="none" fill-rule="evenodd">
        <g id="designs">
            <g id="Group-11" transform="translate(47.000000, 0.000000)">
                <use id="Rectangle-4" stroke="#DCDCDC" mask="url(#mask-2)" stroke-width="2" fill="#FFFFFF" xlink:href="#path-1"></use>
                <rect id="Rectangle-4" fill="#D8D8D8" x="1.96491228" y="1.95945946" width="202.385965" height="23.5135135"></rect>
                <rect id="Rectangle-4" fill="#FFFFFF" x="13.754386" y="7.83783784" width="182.736842" height="12.7364865"></rect>
                <path d="M21.4165483,40.1835037 L54.0410156,40.1835037" id="Line" stroke="#12A9A6" stroke-width="2" stroke-linecap="square"></path>
                <path d="M21.4165483,47.5917518 L54.0410156,47.5917519" id="Line" stroke="#979797" stroke-linecap="square"></path>
                <path d="M21.4165483,53.5 L54.0410156,53.5" id="Line" stroke="#979797" stroke-linecap="square"></path>
                <path d="M21.4165483,58.5917518 L54.0410156,58.5917519" id="Line" stroke="#979797" stroke-linecap="square"></path>
                <path d="M66.4165483,40.1835037 L99.0410156,40.1835037" id="Line" stroke="#12A9A6" stroke-width="2" stroke-linecap="square"></path>
                <path d="M66.4165483,47.5917518 L99.0410156,47.5917519" id="Line" stroke="#979797" stroke-linecap="square"></path>
                <path d="M66.4165483,53.5 L99.0410156,53.5" id="Line" stroke="#979797" stroke-linecap="square"></path>
                <path d="M66.4165483,58.5917518 L99.0410156,58.5917519" id="Line" stroke="#979797" stroke-linecap="square"></path>
                <path d="M111.416548,40.1835037 L144.041016,40.1835037" id="Line" stroke="#12A9A6" stroke-width="2" stroke-linecap="square"></path>
                <path d="M111.416548,47.5917518 L144.041016,47.5917519" id="Line" stroke="#979797" stroke-linecap="square"></path>
                <path d="M111.416548,53.5 L144.041016,53.5" id="Line" stroke="#979797" stroke-linecap="square"></path>
                <path d="M111.416548,58.5917518 L144.041016,58.5917519" id="Line" stroke="#979797" stroke-linecap="square"></path>
                <path d="M154.416548,40.1835037 L187.041016,40.1835037" id="Line" stroke="#12A9A6" stroke-width="2" stroke-linecap="square"></path>
                <path d="M154.416548,47.5917518 L187.041016,47.5917519" id="Line" stroke="#979797" stroke-linecap="square"></path>
                <path d="M154.416548,53.5 L187.041016,53.5" id="Line" stroke="#979797" stroke-linecap="square"></path>
                <path d="M154.416548,58.5917518 L187.041016,58.5917519" id="Line" stroke="#979797" stroke-linecap="square"></path>
                <path d="M23.3737556,72.5305839 L99.6262478,72.5305839" id="Line" stroke="#DCDCDC" stroke-linecap="square"></path>
                <path d="M23.3737556,88.5305839 L99.6262478,88.5305839" id="Line" stroke="#DCDCDC" stroke-linecap="square"></path>
                <path d="M23.3737556,79.5305839 L99.6262478,79.5305839" id="Line" stroke="#DCDCDC" stroke-linecap="square"></path>
                <path d="M23.3737556,95.5305839 L99.6262478,95.5305839" id="Line" stroke="#DCDCDC" stroke-linecap="square"></path>
                <path d="M110.373756,72.5305839 L186.626248,72.5305839" id="Line" stroke="#DCDCDC" stroke-linecap="square"></path>
                <path d="M110.373756,88.5305839 L186.626248,88.5305839" id="Line" stroke="#DCDCDC" stroke-linecap="square"></path>
                <path d="M110.373756,79.5305839 L186.626248,79.5305839" id="Line" stroke="#DCDCDC" stroke-linecap="square"></path>
                <path d="M110.373756,95.5305839 L186.626248,95.5305839" id="Line" stroke="#DCDCDC" stroke-linecap="square"></path>
            </g>
            <g id="Group-10" transform="translate(234.000000, 33.000000)">
                <use id="Rectangle-4" stroke="#DCDCDC" mask="url(#mask-4)" stroke-width="2" fill="#FFFFFF" xlink:href="#path-3"></use>
                <rect id="Rectangle-4" fill="#D8D8D8" x="1" y="2" width="40" height="24"></rect>
                <rect id="Rectangle-4" fill="#FFFFFF" x="2" y="8" width="36" height="13"></rect>
                <path d="M1.19415874,72.1835036 L40.805843,72.1835036" id="Line" stroke="#DCDCDC" stroke-linecap="square"></path>
                <path d="M1.19415874,87.1835036 L40.805843,87.1835036" id="Line" stroke="#DCDCDC" stroke-linecap="square"></path>
                <path d="M1.19415874,102.183504 L40.805843,102.183504" id="Line" stroke="#DCDCDC" stroke-linecap="square"></path>
                <use id="Rectangle-36" stroke="#12A9A6" mask="url(#mask-6)" stroke-width="2" xlink:href="#path-5"></use>
            </g>
            <g id="Group-10" transform="translate(0.754386, 33.000000)">
                <use id="Rectangle-4" stroke="#DCDCDC" mask="url(#mask-8)" stroke-width="2" fill="#FFFFFF" xlink:href="#path-7"></use>
                <rect id="Rectangle-4" fill="#D8D8D8" x="2" y="2" width="87" height="24"></rect>
                <rect id="Rectangle-4" fill="#FFFFFF" x="5" y="8" width="79" height="13"></rect>
                <path d="M2.42229526,72.1835036 L88.5777086,72.1835036" id="Line" stroke="#DCDCDC" stroke-linecap="square"></path>
                <path d="M2.42229526,87.1835036 L88.5777086,87.1835036" id="Line" stroke="#DCDCDC" stroke-linecap="square"></path>
                <path d="M2.42229526,102.183504 L88.5777086,102.183504" id="Line" stroke="#DCDCDC" stroke-linecap="square"></path>
                <use id="Rectangle-36" stroke="#12A9A6" mask="url(#mask-10)" stroke-width="2" xlink:href="#path-9"></use>
            </g>
        </g>
    </g>
</svg>