<?xml version="1.0" encoding="UTF-8" standalone="no"?>
<svg width="278px" height="268px" viewBox="0 0 278 268" version="1.1" xmlns="http://www.w3.org/2000/svg" xmlns:xlink="http://www.w3.org/1999/xlink">
    <!-- Generator: Sketch 3.8.2 (29753) - http://www.bohemiancoding.com/sketch -->
    <title>exploration</title>
    <desc>Created with Sketch.</desc>
    <defs>
        <rect id="path-1" x="0" y="0" width="206" height="127"></rect>
        <mask id="mask-2" maskContentUnits="userSpaceOnUse" maskUnits="objectBoundingBox" x="0" y="0" width="206" height="127" fill="white">
            <use xlink:href="#path-1"></use>
        </mask>
        <rect id="path-3" x="0" y="0" width="54" height="127"></rect>
        <mask id="mask-4" maskContentUnits="userSpaceOnUse" maskUnits="objectBoundingBox" x="0" y="0" width="54" height="127" fill="white">
            <use xlink:href="#path-3"></use>
        </mask>
        <rect id="path-5" x="0" y="141" width="206" height="127"></rect>
        <mask id="mask-6" maskContentUnits="userSpaceOnUse" maskUnits="objectBoundingBox" x="0" y="0" width="206" height="127" fill="white">
            <use xlink:href="#path-5"></use>
        </mask>
        <rect id="path-7" x="0" y="0" width="54" height="127"></rect>
        <mask id="mask-8" maskContentUnits="userSpaceOnUse" maskUnits="objectBoundingBox" x="0" y="0" width="54" height="127" fill="white">
            <use xlink:href="#path-7"></use>
        </mask>
        <rect id="path-9" x="232" y="173" width="35" height="33"></rect>
        <mask id="mask-10" maskContentUnits="userSpaceOnUse" maskUnits="objectBoundingBox" x="0" y="0" width="35" height="33" fill="white">
            <use xlink:href="#path-9"></use>
        </mask>
    </defs>
    <g id="Page-1" stroke="none" stroke-width="1" fill="none" fill-rule="evenodd">
        <g id="exploration">
            <g id="Group-5">
                <use id="Rectangle-4" stroke="#DCDCDC" mask="url(#mask-2)" stroke-width="2" fill="#FFFFFF" xlink:href="#path-1"></use>
                <rect id="Rectangle-4" fill="#D8D8D8" x="1" y="1" width="205" height="25"></rect>
                <polygon id="Rectangle-4" fill="#FFFFFF" points="2 8 203 8 203 21 2 21"></polygon>
                <path d="M43.9151904,39.5487572 L162.8517,39.5487573" id="Line" stroke="#12A9A6" stroke-width="2" stroke-linecap="square"></path>
                <path d="M43.9151904,46.2270813 L162.8517,46.2270813" id="Line" stroke="#979797" stroke-linecap="square"></path>
                <path d="M43.9151904,52.1054597 L162.8517,52.1054597" id="Line" stroke="#979797" stroke-linecap="square"></path>
                <path d="M43.9151904,57.9838381 L162.8517,57.9838381" id="Line" stroke="#979797" stroke-linecap="square"></path>
            </g>
            <g id="Group-5" transform="translate(223.000000, 0.000000)">
                <use id="Rectangle-4" stroke="#DCDCDC" mask="url(#mask-4)" stroke-width="2" fill="#FFFFFF" xlink:href="#path-3"></use>
                <rect id="Rectangle-4" fill="#D8D8D8" x="1" y="1" width="53" height="25"></rect>
                <rect id="Rectangle-4" fill="#FFFFFF" x="3" y="9" width="48" height="13"></rect>
                <path d="M11.1780645,39.3670074 L42,39.3670074" id="Line" stroke="#12A9A6" stroke-width="2" stroke-linecap="square"></path>
                <path d="M11.1780645,46.1835037 L42,46.1835037" id="Line" stroke="#979797" stroke-linecap="square"></path>
                <path d="M11,52 L42,52" id="Line" stroke="#979797" stroke-linecap="square"></path>
                <path d="M11.1780645,58.1835037 L42,58.1835037" id="Line" stroke="#979797" stroke-linecap="square"></path>
            </g>
            <use id="Rectangle-4" stroke="#DCDCDC" mask="url(#mask-6)" stroke-width="2" fill="#FFFFFF" xlink:href="#path-5"></use>
            <rect id="Rectangle-4" fill="#D8D8D8" x="1" y="142" width="205" height="24"></rect>
            <polygon id="Rectangle-4" fill="#FFFFFF" points="3 150 203 150 203 163 3 163"></polygon>
            <g id="Group-6" transform="translate(21.000000, 180.000000)" stroke-linecap="square">
                <path d="M0.416548298,1.18350369 L33.0410156,1.18350371" id="Line" stroke="#12A9A6" stroke-width="2"></path>
                <path d="M0.416548298,8.59175185 L33.0410156,8.59175185" id="Line" stroke="#979797"></path>
                <path d="M0.416548298,14.5 L33.0410156,14.5" id="Line" stroke="#979797"></path>
                <path d="M0.416548298,19.5917518 L33.0410156,19.5917519" id="Line" stroke="#979797"></path>
            </g>
            <g id="Group-7" transform="translate(66.000000, 180.000000)" stroke-linecap="square">
                <path d="M0.416548298,1.18350369 L33.0410156,1.18350371" id="Line" stroke="#12A9A6" stroke-width="2"></path>
                <path d="M0.416548298,8.59175185 L33.0410156,8.59175185" id="Line" stroke="#979797"></path>
                <path d="M0.416548298,14.5 L33.0410156,14.5" id="Line" stroke="#979797"></path>
                <path d="M0.416548298,19.5917518 L33.0410156,19.5917519" id="Line" stroke="#979797"></path>
            </g>
            <g id="Group-8" transform="translate(111.000000, 180.000000)" stroke-linecap="square">
                <path d="M0.416548298,1.18350369 L33.0410156,1.18350371" id="Line" stroke="#12A9A6" stroke-width="2"></path>
                <path d="M0.416548298,8.59175185 L33.0410156,8.59175185" id="Line" stroke="#979797"></path>
                <path d="M0.416548298,14.5 L33.0410156,14.5" id="Line" stroke="#979797"></path>
                <path d="M0.416548298,19.5917518 L33.0410156,19.5917519" id="Line" stroke="#979797"></path>
            </g>
            <g id="Group-9" transform="translate(154.000000, 180.000000)" stroke-linecap="square">
                <path d="M0.416548298,1.18350369 L33.0410156,1.18350371" id="Line" stroke="#12A9A6" stroke-width="2"></path>
                <path d="M0.416548298,8.59175185 L33.0410156,8.59175185" id="Line" stroke="#979797"></path>
                <path d="M0.416548298,14.5 L33.0410156,14.5" id="Line" stroke="#979797"></path>
                <path d="M0.416548298,19.5917518 L33.0410156,19.5917519" id="Line" stroke="#979797"></path>
            </g>
            <path d="M110.373756,218.530584 L186.626248,218.530584" id="Line" stroke="#DCDCDC" stroke-linecap="square"></path>
            <path d="M110.373756,234.530584 L186.626248,234.530584" id="Line" stroke="#DCDCDC" stroke-linecap="square"></path>
            <path d="M110.373756,225.530584 L186.626248,225.530584" id="Line" stroke="#DCDCDC" stroke-linecap="square"></path>
            <path d="M110.373756,241.530584 L186.626248,241.530584" id="Line" stroke="#DCDCDC" stroke-linecap="square"></path>
            <path d="M21.3737556,218.530584 L97.6262478,218.530584" id="Line" stroke="#DCDCDC" stroke-linecap="square"></path>
            <path d="M21.3737556,234.530584 L97.6262478,234.530584" id="Line" stroke="#DCDCDC" stroke-linecap="square"></path>
            <path d="M21.3737556,225.530584 L97.6262478,225.530584" id="Line" stroke="#DCDCDC" stroke-linecap="square"></path>
            <path d="M21.3737556,241.530584 L97.6262478,241.530584" id="Line" stroke="#DCDCDC" stroke-linecap="square"></path>
            <g id="Group-5" transform="translate(223.000000, 141.000000)">
                <use id="Rectangle-4" stroke="#DCDCDC" mask="url(#mask-8)" stroke-width="2" fill="#FFFFFF" xlink:href="#path-7"></use>
                <polygon id="Rectangle-4" fill="#D8D8D8" points="1 1 54 1 54 25 1 25"></polygon>
                <rect id="Rectangle-4" fill="#FFFFFF" x="3" y="9" width="48" height="13"></rect>
                <path d="M1.25726033,72.1835036 L53.742742,72.1835036" id="Line" stroke="#DCDCDC" stroke-linecap="square"></path>
                <path d="M1.25726033,87.1835036 L53.742742,87.1835036" id="Line" stroke="#DCDCDC" stroke-linecap="square"></path>
                <path d="M1.25726033,102.183504 L53.742742,102.183504" id="Line" stroke="#DCDCDC" stroke-linecap="square"></path>
            </g>
            <use id="Rectangle-36" stroke="#12A9A6" mask="url(#mask-10)" stroke-width="2" xlink:href="#path-9"></use>
        </g>
    </g>
</svg>