<?xml version="1.0" encoding="UTF-8" standalone="no"?>
<svg width="871px" height="440px" viewBox="0 0 871 440" version="1.1" xmlns="http://www.w3.org/2000/svg" xmlns:xlink="http://www.w3.org/1999/xlink">
    <!-- Generator: Sketch 3.8 (29681) - http://www.bohemiancoding.com/sketch -->
    <title>Artboard 1</title>
    <desc>Created with Sketch.</desc>
    <defs></defs>
    <g id="Page-1" stroke="none" stroke-width="1" fill="none" fill-rule="evenodd">
        <g id="Artboard-1">
            <polygon id="Polygon-1" fill="" transform="translate(112.500000, 204.500000) rotate(-90.000000) translate(-112.500000, -204.500000) " points="112.5 106 197.803502 155.25 197.803502 253.75 112.5 303 27.1964977 253.75 27.1964977 155.25"></polygon>
            <polygon id="Polygon-1" fill="" transform="translate(438.500000, 204.500000) rotate(-90.000000) translate(-438.500000, -204.500000) " points="438.5 106 523.803502 155.25 523.803502 253.75 438.5 303 353.196498 253.75 353.196498 155.25"></polygon>
            <polygon id="Polygon-1" fill="" transform="translate(597.500000, 300.500000) rotate(-90.000000) translate(-597.500000, -300.500000) " points="597.5 202 682.803502 251.25 682.803502 349.75 597.5 399 512.196498 349.75 512.196498 251.25"></polygon>
            <polygon id="Polygon-1" fill="" transform="translate(757.500000, 204.696498) rotate(-90.000000) translate(-757.500000, -204.696498) " points="757.5 106.196498 842.803502 155.446498 842.803502 253.946498 757.5 303.196498 672.196498 253.946498 672.196498 155.446498"></polygon>
            <polygon id="Polygon-1" fill="" transform="translate(597.500000, 107.500000) rotate(-90.000000) translate(-597.500000, -107.500000) " points="597.5 9 682.803502 58.25 682.803502 156.75 597.5 206 512.196498 156.75 512.196498 58.25"></polygon>
            <polygon id="Polygon-1" fill="" transform="translate(277.500000, 301.500000) rotate(-90.000000) translate(-277.500000, -301.500000) " points="277.5 203 362.803502 252.25 362.803502 350.75 277.5 400 192.196498 350.75 192.196498 252.25"></polygon>
            <polygon id="Polygon-1" fill="" transform="translate(277.500000, 107.500000) rotate(-90.000000) translate(-277.500000, -107.500000) " points="277.5 9 362.803502 58.25 362.803502 156.75 277.5 206 192.196498 156.75 192.196498 58.25"></polygon>
            <text id="Planning" transform="translate(112.000000, 204.000000) rotate(-360.000000) translate(-112.000000, -204.000000) " font-family="Futura-Medium, Futura" font-size="20" font-weight="400" fill="#FFFFFF">
                <tspan x="73.1865234" y="212">Planning</tspan>
            </text>
            <text id="User-&amp;-content-" transform="translate(278.000000, 301.500000) rotate(-360.000000) translate(-278.000000, -301.500000) " font-family="Futura-Medium, Futura" font-size="20" font-weight="400" fill="#FFFFFF">
                <tspan x="210.96875" y="296.5">User &amp; content </tspan>
                <tspan x="238.463867" y="322.5">analytics</tspan>
            </text>
            <text id="Research" transform="translate(277.000000, 107.500000) rotate(-360.000000) translate(-277.000000, -107.500000) " font-family="Futura-Medium, Futura" font-size="20" font-weight="400" fill="#FFFFFF">
                <tspan x="235.862305" y="115.5">Research</tspan>
            </text>
            <text id="Exploration" transform="translate(439.000000, 204.500000) rotate(-360.000000) translate(-439.000000, -204.500000) " font-family="Futura-Medium, Futura" font-size="20" font-weight="400" fill="#FFFFFF">
                <tspan x="386.880859" y="212.5">Exploration</tspan>
            </text>
            <text id="User-Testing" transform="translate(598.000000, 300.000000) rotate(-360.000000) translate(-598.000000, -300.000000) " font-family="Futura-Medium, Futura" font-size="20" font-weight="400" fill="#FFFFFF">
                <tspan x="543.498047" y="308">User Testing</tspan>
            </text>
            <text id="Design" transform="translate(598.000000, 107.500000) rotate(-360.000000) translate(-598.000000, -107.500000) " font-family="Futura-Medium, Futura" font-size="20" font-weight="400" fill="#FFFFFF">
                <tspan x="567.189453" y="89.5">Design</tspan>
                <tspan x="590.69043" y="115.5">&amp;</tspan>
                <tspan x="538.834961" y="141.5">Development</tspan>
            </text>
            <text id="Feedback" transform="translate(758.000000, 204.500000) rotate(-360.000000) translate(-758.000000, -204.500000) " font-family="Futura-Medium, Futura" font-size="20" font-weight="400" fill="#FFFFFF">
                <tspan x="713.927734" y="212.5">Feedback</tspan>
            </text>
            <path d="M424.5,301.5 L441.5,362.5" id="Line" stroke="#000000" stroke-width="2" stroke-linecap="square"></path>
            <path d="M441.5,363 L514.671036,363" id="Line" stroke="#000000" stroke-width="2" stroke-linecap="square"></path>
            <polygon id="Triangle-1" fill="#000000" points="508 368 508 357 519 362.5"></polygon>
            <polygon id="Triangle-1" fill="#000000" transform="translate(424.736097, 301.736097) rotate(-105.000000) translate(-424.736097, -301.736097) " points="419.236097 307.236097 419.236097 296.236097 430.236097 301.736097"></polygon>
            <path d="M752.207031,35.4335937 L769.207031,96.4335937" id="Line" stroke="#000000" stroke-width="2" stroke-linecap="square" transform="translate(760.707031, 65.933594) rotate(-180.000000) translate(-760.707031, -65.933594) "></path>
            <path d="M679.207031,34.9335937 L752.378067,34.9335937" id="Line" stroke="#000000" stroke-width="2" stroke-linecap="square" transform="translate(715.707031, 34.933594) rotate(-180.000000) translate(-715.707031, -34.933594) "></path>
            <polygon id="Triangle-1" fill="#000000" transform="translate(680.207031, 35.433594) rotate(-180.000000) translate(-680.207031, -35.433594) " points="674.707031 40.9335938 674.707031 29.9335938 685.707031 35.4335938"></polygon>
            <polygon id="Triangle-1" fill="#000000" transform="translate(768.970934, 96.197497) rotate(-285.000000) translate(-768.970934, -96.197497) " points="763.470934 101.697497 763.470934 90.697497 774.470934 96.197497"></polygon>
            <text id="Loop-&amp;-" font-family="Futura-Medium, Futura" font-size="20" font-weight="400" fill="#3C3C3C">
                <tspan x="410.15332" y="405">Loop &amp; </tspan>
                <tspan x="404.928711" y="431">reiterate</tspan>
            </text>
            <text id="Loop-&amp;-" font-family="Futura-Medium, Futura" font-size="20" font-weight="400" fill="#3C3C3C">
                <tspan x="781.65332" y="30">Loop &amp; </tspan>
                <tspan x="776.428711" y="56">reiterate</tspan>
            </text>
        </g>
    </g>
</svg>