<?xml version="1.0" encoding="UTF-8" standalone="no"?>
<svg width="236px" height="143px" viewBox="0 0 236 143" version="1.1" xmlns="http://www.w3.org/2000/svg" xmlns:xlink="http://www.w3.org/1999/xlink">
    <!-- Generator: Sketch 3.8.2 (29753) - http://www.bohemiancoding.com/sketch -->
    <title>research</title>
    <desc>Created with Sketch.</desc>
    <defs></defs>
    <g id="Page-1" stroke="none" stroke-width="1" fill="none" fill-rule="evenodd">
        <g id="research" transform="translate(2.000000, 0.000000)">
            <path d="M115,40 L166,40" id="Line" stroke="#12A9A6" stroke-width="10.6756757" stroke-linecap="square"></path>
            <path d="M108,57 L168,57" id="Line" stroke="#979797" stroke-width="8.54054054" stroke-linecap="square"></path>
            <path d="M114,70 L167,70" id="Line" stroke="#979797" stroke-width="8.54054054" stroke-linecap="square"></path>
            <path d="M114,84 L167,84" id="Line" stroke="#979797" stroke-width="8.54054054" stroke-linecap="square"></path>
            <rect id="Rectangle-15" fill="#D8D8D8" transform="translate(207.344931, 116.344931) rotate(-45.000000) translate(-207.344931, -116.344931) " x="199.849567" y="82.3403063" width="14.9907295" height="67.809944" rx="7.49536475"></rect>
            <path d="M1,40 L110,40" id="Line" stroke="#12A9A6" stroke-width="4.27027027" stroke-linecap="square"></path>
            <path d="M0,57 L110,57" id="Line" stroke="#979797" stroke-width="2.13513514" stroke-linecap="square"></path>
            <path d="M0,70 L109,70" id="Line" stroke="#979797" stroke-width="2.13513514" stroke-linecap="square"></path>
            <path d="M0,84 L109,84" id="Line" stroke="#979797" stroke-width="2.13513514" stroke-linecap="square"></path>
            <path d="M152.5,112 C183.151804,112 208,86.927946 208,56 C208,25.072054 183.151804,0 152.5,0 C121.848196,0 97,25.072054 97,56 C97,86.927946 121.848196,112 152.5,112 Z M152.5,99 C175.972102,99 195,79.7482442 195,56 C195,32.2517558 175.972102,13 152.5,13 C129.027898,13 110,32.2517558 110,56 C110,79.7482442 129.027898,99 152.5,99 Z" id="Combined-Shape" fill="#D8D8D8"></path>
        </g>
    </g>
</svg>