<?xml version="1.0" encoding="UTF-8" standalone="no"?>
<svg width="110px" height="67px" viewBox="0 0 110 67" version="1.1" xmlns="http://www.w3.org/2000/svg" xmlns:xlink="http://www.w3.org/1999/xlink">
    <!-- Generator: Sketch 3.8.2 (29753) - http://www.bohemiancoding.com/sketch -->
    <title>research</title>
    <desc>Created with Sketch.</desc>
    <defs></defs>
    <g id="Page-1" stroke="none" stroke-width="1" fill="none" fill-rule="evenodd">
        <g id="research">
            <g id="Group">
                <path d="M54.5,19 L78.5,19" id="Line" stroke="#12A9A6" stroke-width="5" stroke-linecap="square"></path>
                <path d="M50.9935957,27 L78.9935957,27" id="Line" stroke="#979797" stroke-width="4" stroke-linecap="square"></path>
                <path d="M54.0669108,33 L79.0669108,33" id="Line" stroke="#979797" stroke-width="4" stroke-linecap="square"></path>
                <path d="M54,39 L79,39" id="Line" stroke="#979797" stroke-width="4" stroke-linecap="square"></path>
                <rect id="Rectangle-15" fill="#D8D8D8" transform="translate(97.032747, 54.031912) rotate(-45.000000) translate(-97.032747, -54.031912) " x="93.5327471" y="38.1519119" width="7" height="31.7600002" rx="3.5"></rect>
                <g id="Group-2" transform="translate(0.000000, 18.000000)" stroke-linecap="square">
                    <path d="M0.999999981,1 L52,1" id="Line" stroke="#12A9A6" stroke-width="2"></path>
                    <path d="M0.499999986,9 L52.1503132,9" id="Line" stroke="#979797"></path>
                    <path d="M0.500000011,15 L51.6885266,15" id="Line" stroke="#979797"></path>
                    <path d="M0.500000003,21 L51.5521868,21" id="Line" stroke="#979797"></path>
                </g>
                <path d="M72,52 C86.3594035,52 98,40.3594035 98,26 C98,11.6405965 86.3594035,0 72,0 C57.6405965,0 46,11.6405965 46,26 C46,40.3594035 57.6405965,52 72,52 Z M72,46 C83.045695,46 92,37.045695 92,26 C92,14.954305 83.045695,6 72,6 C60.954305,6 52,14.954305 52,26 C52,37.045695 60.954305,46 72,46 Z" id="Combined-Shape" fill="#D8D8D8"></path>
            </g>
        </g>
    </g>
</svg>