<?xml version="1.0" encoding="UTF-8" standalone="no"?>
<svg width="479px" height="322px" viewBox="0 0 479 322" version="1.1" xmlns="http://www.w3.org/2000/svg" xmlns:xlink="http://www.w3.org/1999/xlink">
    <!-- Generator: Sketch 3.8.1 (29687) - http://www.bohemiancoding.com/sketch -->
    <title>clipboard group</title>
    <desc>Created with Sketch.</desc>
    <defs></defs>
    <g id="Page-1" stroke="none" stroke-width="1" fill="none" fill-rule="evenodd">
        <g id="clipboard-group" transform="translate(0.000000, -2.000000)">
            <path d="M171.863636,168.142857 L292.27651,40.7209695" id="Line" stroke="#979797" stroke-linecap="square"></path>
            <path d="M174,194 L292,263" id="Line" stroke="#979797" stroke-linecap="square"></path>
            <g id="story" transform="translate(355.000000, 0.000000)" stroke="#979797" stroke-linecap="square">
                <path d="M3.66011822,3.73045584 L120.783902,3.73045584" id="Line" stroke-width="2"></path>
                <path d="M1.59543612,24.2479629 L123.016412,24.2479629" id="Line"></path>
                <path d="M1.59543612,46.6306979 L123.016412,46.6306979" id="Line"></path>
                <path d="M1.59543612,69.013433 L123.016412,69.013433" id="Line"></path>
                <path d="M1.59543612,91.396168 L123.016412,91.396168" id="Line"></path>
            </g>
            <g id="story" transform="translate(355.000000, 232.000000)" stroke="#979797" stroke-linecap="square">
                <path d="M3.66011822,3.73045584 L120.783902,3.73045584" id="Line" stroke-width="2"></path>
                <path d="M1.59543612,24.2479629 L123.016412,24.2479629" id="Line"></path>
                <path d="M1.59543612,46.6306979 L123.016412,46.6306979" id="Line"></path>
                <path d="M1.59543612,69.013433 L123.016412,69.013433" id="Line"></path>
                <path d="M1.59543612,91.396168 L123.016412,91.396168" id="Line"></path>
            </g>
            <path d="M302.5,51 C311.612698,51 319,43.6126984 319,34.5 C319,25.3873016 311.612698,18 302.5,18 C293.387302,18 286,25.3873016 286,34.5 C286,43.6126984 293.387302,51 302.5,51 Z" id="Oval-2" fill="#12A9A6"></path>
            <ellipse id="Oval-2" fill="#12A9A6" cx="302.5" cy="266.5" rx="16.5" ry="16.5"></ellipse>
            <g id="clipboard" transform="translate(0.000000, 33.000000)">
                <rect id="Rectangle-2" fill="#D8D8D8" x="0" y="14.34" width="185" height="224.66"></rect>
                <rect id="Rectangle-3" fill="#FFFFFF" x="9.48717949" y="23.9" width="166.025641" height="186.42"></rect>
                <path d="M92.4858827,0 C118.575626,-2.0950839e-07 111.474356,23.8999977 125.705125,23.8999977 C139.935895,23.8999977 142.307692,35.85 142.307692,35.85 L42.664076,35.85 C42.664076,35.85 42.6923093,23.8999977 59.2948723,23.8999977 C75.8974353,23.8999977 66.3961391,2.09508387e-07 92.4858827,0 Z" id="Path-29" fill="#12A9A6"></path>
                <ellipse id="Oval-10" fill="#FFFFFF" cx="92.5" cy="14.34" rx="5.92948718" ry="5.975"></ellipse>
            </g>
            <g id="person" transform="translate(50.000000, 105.000000)" fill="#D8D8D8">
                <ellipse id="Oval-1" cx="44" cy="27" rx="25" ry="27"></ellipse>
                <path d="M0.000396223634,96 C0.000396223634,96 -0.581534327,43.0000001 42.8578586,43 C86.2972516,42.9999999 84.995841,96 84.995841,96 L0.000396223634,96 Z" id="Path-6"></path>
            </g>
        </g>
    </g>
</svg>